<?xml version="1.0" encoding="UTF-8" standalone="no"?>
<svg width="1371px" height="876px" viewBox="0 0 1371 876" version="1.1" xmlns="http://www.w3.org/2000/svg" xmlns:xlink="http://www.w3.org/1999/xlink">
    <!-- Generator: Sketch 50.2 (55047) - http://www.bohemiancoding.com/sketch -->
    <desc>Created with Sketch.</desc>
    <defs></defs>
    <g id="Page-1" stroke="none" stroke-width="1" fill="none" fill-rule="evenodd">
        <g id="Logo-Copy" transform="translate(-15.000000, -232.000000)">
            <g id="Group-3" transform="translate(15.000000, 232.000000)">
                <g id="Group-2" fill-rule="nonzero">
                    <path d="M53.2432471,55.3843218 L16.8673669,19.0260955 L20.7141269,15.1812024 L58.6833873,53.1320356 L58.6833873,760.676103 L127.957982,829.917077 L533.942898,831.798969 L543.018863,825.255038 L549.509509,835.09746 L556.801389,824.105516 L563.992272,835.997837 L568.914411,831.961075 L576.702852,831.997178 L576.677623,837.434619 L570.849627,837.407604 L562.586094,844.184722 L556.588524,834.26591 L549.496034,844.957289 L541.59953,832.983022 L535.688996,837.244622 L125.694162,835.344142 L53.2432471,762.928389 L53.2432471,55.3843218 Z M534.828562,831.803075 L533.942898,831.798969 L533.224611,832.316868 L534.828562,831.803075 Z M832.228193,838.619192 L832.253422,833.18175 L849.964576,833.263848 L849.939347,838.70129 L832.228193,838.619192 Z M1318.62836,840.873838 L973.077952,839.272083 L973.103181,833.834642 L1313.18822,835.411063 L1313.18822,760.676103 L1353.90947,719.974607 L1357.75623,723.8195 L1318.62836,762.928389 L1318.62836,840.873838 Z" id="Path-7" fill="#71C21F"></path>
                    <path d="M26.0425461,760.504229 L56.7748553,760.504229 L56.7748553,765.941729 L20.6024059,765.941729 L20.6024059,161.243911 L27.9882444,157.114755 L29.7084913,149.414429 L70.894799,149.414429 L70.894799,154.851929 L30.9126642,154.851929 C30.697782,156.871322 30.2963911,158.256441 29.7084913,159.007285 C29.1205916,159.758129 27.8986099,160.446321 26.0425461,161.071863 L26.0425461,760.504229 Z M124.106002,862.611201 L124.106002,832.704951 L129.546142,832.704951 L129.546142,857.173701 L523.659923,857.173701 L530.459226,861.742909 L540.578454,850.267513 L549.389437,860.925456 L557.77298,849.657784 L565.196775,861.370791 L570.707965,857.173701 L588.494269,857.173701 L588.494269,862.611201 L572.544314,862.611201 L563.775566,869.28911 L557.414042,859.252117 L549.614821,869.734446 L540.444954,858.642389 L531.384609,868.916993 L522.001147,862.611201 L124.106002,862.611201 Z M859.936238,862.485004 L838.985985,862.611201 L838.985985,857.173701 L858.697859,857.173701 L876.569177,851.532866 L893.083749,859.699737 L909.023041,851.366934 L923.924936,859.629553 L938.158166,851.491067 L955.214344,857.173701 L1313.18822,857.173701 L1313.18822,722.670521 L1351.1271,681.916409 L1355.10983,685.620418 L1318.62836,724.808971 L1318.62836,862.611201 L1315.90829,862.611201 L954.772938,862.611201 L938.746869,857.418834 L923.966017,865.870447 L908.947142,857.542967 L893.152283,865.800263 L876.119323,857.377036 L859.936238,862.485004 Z M925.264971,860.372559 L922.594798,860.390119 L923.924936,859.629553 L925.264971,860.372559 Z M894.324248,860.313195 L891.857344,860.340882 L893.083749,859.699737 L894.324248,860.313195 Z M859.117139,857.173701 L858.298041,857.299898 L858.697859,857.173701 L859.117139,857.173701 Z" id="Path-7" fill="#71C21F"></path>
                    <g id="flare" transform="translate(73.161963, 127.500000)" fill="#444444">
                        <path d="M4.93518953,15.39052 C3.91304446,16.4594417 2.21801829,16.4972484 1.14924262,15.4749637 C0.0804669585,14.4526789 0.0426653952,12.7574212 1.06481047,11.6884994 L11.1431052,1.14898973 C12.1652502,0.08006803 13.8602764,0.0422613014 14.9290521,1.06454604 C15.9978277,2.08683078 16.0356293,3.78208856 15.0134842,4.85101027 L4.93518953,15.39052 Z" id="Path-2"></path>
                        <path d="M11.1431052,48.01552 L1.06481047,37.4760103 C0.0426653952,36.4070886 0.0804669585,34.7118308 1.14924262,33.689546 C2.21801829,32.6672613 3.91304446,32.705068 4.93518953,33.7739897 L15.0134842,44.3134994 C16.0356293,45.3824212 15.9978277,47.0776789 14.9290521,48.0999637 C13.8602764,49.1222484 12.1652502,49.0844417 11.1431052,48.01552 Z" id="Path-2"></path>
                        <path d="M3,27.4281003 C1.52112814,27.4281003 0.322265625,26.2290739 0.322265625,24.75 C0.322265625,23.2709261 1.52112814,22.0718997 3,22.0718997 L14.2110215,22.0718997 C15.6898934,22.0718997 16.8887559,23.2709261 16.8887559,24.75 C16.8887559,26.2290739 15.6898934,27.4281003 14.2110215,27.4281003 L3,27.4281003 Z" id="Path-3"></path>
                    </g>
                    <polygon id="Path-8" fill="#71C21F" points="1318.71071 801.695304 1314.86395 797.850411 1353.45125 759.281839 1357.29801 763.126732"></polygon>
                    <path d="M1360.03505,723.1875 C1363.03955,723.1875 1365.47519,720.753048 1365.47519,717.75 C1365.47519,714.746952 1363.03955,712.3125 1360.03505,712.3125 C1357.03054,712.3125 1354.59491,714.746952 1354.59491,717.75 C1354.59491,720.753048 1357.03054,723.1875 1360.03505,723.1875 Z M1360.03505,728.625 C1354.02604,728.625 1349.15477,723.756097 1349.15477,717.75 C1349.15477,711.743903 1354.02604,706.875 1360.03505,706.875 C1366.04406,706.875 1370.91533,711.743903 1370.91533,717.75 C1370.91533,723.756097 1366.04406,728.625 1360.03505,728.625 Z" id="Oval-2" fill="#71C21F"></path>
                    <path d="M1360.03505,685.125 C1363.03955,685.125 1365.47519,682.690548 1365.47519,679.6875 C1365.47519,676.684452 1363.03955,674.25 1360.03505,674.25 C1357.03054,674.25 1354.59491,676.684452 1354.59491,679.6875 C1354.59491,682.690548 1357.03054,685.125 1360.03505,685.125 Z M1360.03505,690.5625 C1354.02604,690.5625 1349.15477,685.693597 1349.15477,679.6875 C1349.15477,673.681403 1354.02604,668.8125 1360.03505,668.8125 C1366.04406,668.8125 1370.91533,673.681403 1370.91533,679.6875 C1370.91533,685.693597 1366.04406,690.5625 1360.03505,690.5625 Z" id="Oval-2-Copy" fill="#71C21F"></path>
                    <path d="M1360.03505,761.25 C1363.03955,761.25 1365.47519,758.815548 1365.47519,755.8125 C1365.47519,752.809452 1363.03955,750.375 1360.03505,750.375 C1357.03054,750.375 1354.59491,752.809452 1354.59491,755.8125 C1354.59491,758.815548 1357.03054,761.25 1360.03505,761.25 Z M1360.03505,766.6875 C1354.02604,766.6875 1349.15477,761.818597 1349.15477,755.8125 C1349.15477,749.806403 1354.02604,744.9375 1360.03505,744.9375 C1366.04406,744.9375 1370.91533,749.806403 1370.91533,755.8125 C1370.91533,761.818597 1366.04406,766.6875 1360.03505,766.6875 Z" id="Oval-2" fill="#71C21F"></path>
                    <polygon id="Path-8" fill="#71C21F" points="1318.71071 839.757804 1314.86395 835.912911 1353.45125 797.344339 1357.29801 801.189232"></polygon>
                    <path d="M1360.03505,799.3125 C1363.03955,799.3125 1365.47519,796.878048 1365.47519,793.875 C1365.47519,790.871952 1363.03955,788.4375 1360.03505,788.4375 C1357.03054,788.4375 1354.59491,790.871952 1354.59491,793.875 C1354.59491,796.878048 1357.03054,799.3125 1360.03505,799.3125 Z M1360.03505,804.75 C1354.02604,804.75 1349.15477,799.881097 1349.15477,793.875 C1349.15477,787.868903 1354.02604,783 1360.03505,783 C1366.04406,783 1370.91533,787.868903 1370.91533,793.875 C1370.91533,799.881097 1366.04406,804.75 1360.03505,804.75 Z" id="Oval-2" fill="#71C21F"></path>
                    <polygon id="Path-8" fill="#71C21F" transform="translate(35.107752, 73.613572) scale(-1, 1) translate(-35.107752, -73.613572) " points="17.7374828 94.8203044 13.8907228 90.9754113 52.4780219 52.4068392 56.3247819 56.2517323"></polygon>
                    <path d="M11.1536886,54.375 C14.158195,54.375 16.5938288,51.9405483 16.5938288,48.9375 C16.5938288,45.9344517 14.158195,43.5 11.1536886,43.5 C8.1491821,43.5 5.71354837,45.9344517 5.71354837,48.9375 C5.71354837,51.9405483 8.1491821,54.375 11.1536886,54.375 Z M11.1536886,59.8125 C5.14467563,59.8125 0.273408176,54.9435967 0.273408176,48.9375 C0.273408176,42.9314033 5.14467563,38.0625 11.1536886,38.0625 C17.1627015,38.0625 22.0339689,42.9314033 22.0339689,48.9375 C22.0339689,54.9435967 17.1627015,59.8125 11.1536886,59.8125 Z" id="Oval-2" fill="#71C21F" transform="translate(11.153689, 48.937500) scale(-1, 1) translate(-11.153689, -48.937500) "></path>
                    <path d="M11.1536886,16.3125 C14.158195,16.3125 16.5938288,13.8780483 16.5938288,10.875 C16.5938288,7.87195167 14.158195,5.4375 11.1536886,5.4375 C8.1491821,5.4375 5.71354837,7.87195167 5.71354837,10.875 C5.71354837,13.8780483 8.1491821,16.3125 11.1536886,16.3125 Z M11.1536886,21.75 C5.14467563,21.75 0.273408176,16.8810967 0.273408176,10.875 C0.273408176,4.86890335 5.14467563,0 11.1536886,0 C17.1627015,0 22.0339689,4.86890335 22.0339689,10.875 C22.0339689,16.8810967 17.1627015,21.75 11.1536886,21.75 Z" id="Oval-2" fill="#71C21F" transform="translate(11.153689, 10.875000) scale(-1, 1) translate(-11.153689, -10.875000) "></path>
                    <polygon id="Path-8" fill="#71C21F" transform="translate(35.107752, 111.676072) scale(-1, 1) translate(-35.107752, -111.676072) " points="17.7374828 132.882804 13.8907228 129.037911 52.4780219 90.4693392 56.3247819 94.3142323"></polygon>
                    <path d="M11.1536886,92.4375 C14.158195,92.4375 16.5938288,90.0030483 16.5938288,87 C16.5938288,83.9969517 14.158195,81.5625 11.1536886,81.5625 C8.1491821,81.5625 5.71354837,83.9969517 5.71354837,87 C5.71354837,90.0030483 8.1491821,92.4375 11.1536886,92.4375 Z M11.1536886,97.875 C5.14467563,97.875 0.273408176,93.0060967 0.273408176,87 C0.273408176,80.9939033 5.14467563,76.125 11.1536886,76.125 C17.1627015,76.125 22.0339689,80.9939033 22.0339689,87 C22.0339689,93.0060967 17.1627015,97.875 11.1536886,97.875 Z" id="Oval-2" fill="#71C21F" transform="translate(11.153689, 87.000000) scale(-1, 1) translate(-11.153689, -87.000000) "></path>
                    <path d="M22.0339689,157.6875 C25.0384754,157.6875 27.4741091,155.253048 27.4741091,152.25 C27.4741091,149.246952 25.0384754,146.8125 22.0339689,146.8125 C19.0294625,146.8125 16.5938288,149.246952 16.5938288,152.25 C16.5938288,155.253048 19.0294625,157.6875 22.0339689,157.6875 Z M22.0339689,163.125 C16.024956,163.125 11.1536886,158.256097 11.1536886,152.25 C11.1536886,146.243903 16.024956,141.375 22.0339689,141.375 C28.0429819,141.375 32.9142493,146.243903 32.9142493,152.25 C32.9142493,158.256097 28.0429819,163.125 22.0339689,163.125 Z" id="Oval-2" fill="#71C21F" transform="translate(22.033969, 152.250000) scale(-1, 1) translate(-22.033969, -152.250000) "></path>
                </g>
                <g id="Group" transform="translate(98.000000, 88.000000)">
                    <path d="M101.811028,706.50869 C55.5570275,706.50869 32.6422018,678.920897 32.6422018,619.501034 L32.6422018,485.806345 C32.6422018,415.351366 75.0770642,375.455172 147.21633,375.455172 L154.005908,375.455172 C226.145174,375.455172 268.580037,415.351366 268.580037,485.806345 L268.580037,536.737655 L154.854606,536.737655 L154.854606,476.468938 L146.367633,476.468938 L146.367633,599.12851 L154.854606,599.12851 L154.854606,545.226207 L268.580037,545.226207 L268.580037,700.142276 L178.19378,700.142276 L161.219835,663.641503 C155.703303,684.014028 144.24589,706.50869 101.811028,706.50869 Z M486.695229,482.835352 L378.061982,482.835352 L378.061982,491.323903 L486.695229,491.323903 L486.695229,590.639959 L378.061982,590.639959 L378.061982,599.12851 L486.695229,599.12851 L486.695229,700.142276 L277.067009,700.142276 L277.067009,381.821586 L486.695229,381.821586 L486.695229,482.835352 Z M609.75633,706.50869 C537.617064,706.50869 495.182202,666.612497 495.182202,596.157517 L495.182202,485.806345 C495.182202,415.351366 537.617064,375.455172 609.75633,375.455172 L616.545908,375.455172 C688.685174,375.455172 731.120037,415.351366 731.120037,485.806345 L731.120037,596.157517 C731.120037,666.612497 688.685174,706.50869 616.545908,706.50869 L609.75633,706.50869 Z M608.907633,605.494924 L617.394606,605.494924 L617.394606,476.468938 L608.907633,476.468938 L608.907633,605.494924 Z M949.235229,482.835352 L849.088954,482.835352 L849.088954,491.323903 L949.235229,491.323903 L949.235229,590.639959 L849.088954,590.639959 L849.088954,700.142276 L739.607009,700.142276 L739.607009,381.821586 L949.235229,381.821586 L949.235229,482.835352 Z M1167.35042,482.835352 L1067.20415,482.835352 L1067.20415,491.323903 L1167.35042,491.323903 L1167.35042,590.639959 L1067.20415,590.639959 L1067.20415,700.142276 L957.722202,700.142276 L957.722202,381.821586 L1167.35042,381.821586 L1167.35042,482.835352 Z" id="GEOFF-/" fill="#444444"></path>
                    <path d="M32.6422018,339.246488 L32.6422018,27.2068966 L172.409931,27.2068966 C233.974288,27.2068966 276.403777,59.659014 276.403777,127.059566 L276.403777,133.71641 C276.403777,201.116962 233.974288,233.56908 172.409931,233.56908 L144.123605,233.56908 L144.123605,339.246488 L32.6422018,339.246488 Z M127.484589,134.548516 L173.241882,134.548516 L173.241882,126.22746 L127.484589,126.22746 L127.484589,134.548516 Z M261.844639,339.246488 L295.122669,27.2068966 L472.328183,27.2068966 L505.606214,339.246488 L387.053229,339.246488 L387.053229,238.977766 L378.733721,238.977766 L378.733721,339.246488 L261.844639,339.246488 Z M356.687026,159.511683 L410.763826,159.511683 L410.763826,151.190628 L356.687026,151.190628 L356.687026,159.511683 Z M613.759813,345.48728 C543.043998,345.48728 501.44646,306.378318 501.44646,237.313555 L501.44646,27.2068966 L612.927863,27.2068966 L612.927863,246.466716 L621.24737,246.466716 L621.24737,27.2068966 L732.728773,27.2068966 L732.728773,237.313555 C732.728773,306.378318 691.131235,345.48728 620.41542,345.48728 L613.759813,345.48728 Z M852.529684,240.225924 L942.380367,240.225924 L942.380367,339.246488 L741.048281,339.246488 L741.048281,27.2068966 L852.529684,27.2068966 L852.529684,240.225924 Z" id="PAUL" fill="#444444"></path>
                    <path d="M1120.7156,273.927822 L1079.89595,273.927822 L1079.89595,279.605783 L1120.7156,279.605783 L1120.7156,342.874491 L1077.19266,342.874491 L1063.40589,327.733262 C1055.0257,339.629942 1040.15762,346.930178 1015.28737,346.930178 C973.656733,346.930178 946.623853,324.218334 946.623853,285.283744 C946.623853,265.275691 954.193059,247.43067 973.386404,239.860056 C955.004046,232.55982 947.975497,216.337074 947.975497,197.680917 C947.975497,158.746327 977.171007,136.034483 1022.04559,136.034483 C1066.92017,136.034483 1096.11568,158.746327 1096.11568,197.680917 C1096.11568,202.277361 1095.57502,206.603427 1094.76403,210.659113 L1120.7156,210.659113 L1120.7156,273.927822 Z M1042.04992,209.847976 L1042.04992,204.440394 L1009.61046,204.440394 L1009.61046,209.847976 L1042.04992,209.847976 Z M1042.04992,278.524266 L1042.04992,273.116685 L1009.61046,273.116685 L1009.61046,278.524266 L1042.04992,278.524266 Z" id="&amp;" fill="#444444"></path>
                    <path d="M69.1688257,679.301793 C22.9148257,679.301793 0,651.714 0,592.294138 L0,458.599448 C0,388.144469 42.4348624,348.248276 114.574128,348.248276 L121.363706,348.248276 C193.502972,348.248276 235.937835,388.144469 235.937835,458.599448 L235.937835,509.530759 L122.212404,509.530759 L122.212404,449.262041 L113.725431,449.262041 L113.725431,571.921614 L122.212404,571.921614 L122.212404,518.01931 L235.937835,518.01931 L235.937835,672.935379 L145.551578,672.935379 L128.577633,636.434607 C123.061101,656.807131 111.603688,679.301793 69.1688257,679.301793 Z M454.053028,455.628455 L345.41978,455.628455 L345.41978,464.117007 L454.053028,464.117007 L454.053028,563.433062 L345.41978,563.433062 L345.41978,571.921614 L454.053028,571.921614 L454.053028,672.935379 L244.424807,672.935379 L244.424807,354.61469 L454.053028,354.61469 L454.053028,455.628455 Z M577.114128,679.301793 C504.974862,679.301793 462.54,639.4056 462.54,568.950621 L462.54,458.599448 C462.54,388.144469 504.974862,348.248276 577.114128,348.248276 L583.903706,348.248276 C656.042972,348.248276 698.477835,388.144469 698.477835,458.599448 L698.477835,568.950621 C698.477835,639.4056 656.042972,679.301793 583.903706,679.301793 L577.114128,679.301793 Z M576.265431,578.288028 L584.752404,578.288028 L584.752404,449.262041 L576.265431,449.262041 L576.265431,578.288028 Z M916.593028,455.628455 L816.446752,455.628455 L816.446752,464.117007 L916.593028,464.117007 L916.593028,563.433062 L816.446752,563.433062 L816.446752,672.935379 L706.964807,672.935379 L706.964807,354.61469 L916.593028,354.61469 L916.593028,455.628455 Z M1134.70822,455.628455 L1034.56194,455.628455 L1034.56194,464.117007 L1134.70822,464.117007 L1134.70822,563.433062 L1034.56194,563.433062 L1034.56194,672.935379 L925.08,672.935379 L925.08,354.61469 L1134.70822,354.61469 L1134.70822,455.628455 Z" id="GEOFF-/" fill="#444444"></path>
                    <path d="M0,312.039591 L0,0 L139.767729,0 C201.332086,0 243.761575,32.4521175 243.761575,99.8526692 L243.761575,106.509514 C243.761575,173.910066 201.332086,206.362183 139.767729,206.362183 L111.481403,206.362183 L111.481403,312.039591 L0,312.039591 Z M94.8423876,107.341619 L140.59968,107.341619 L140.59968,99.0205636 L94.8423876,99.0205636 L94.8423876,107.341619 Z M229.202437,312.039591 L262.480467,0 L439.685981,0 L472.964012,312.039591 L354.411027,312.039591 L354.411027,211.770869 L346.09152,211.770869 L346.09152,312.039591 L229.202437,312.039591 Z M324.044824,132.304787 L378.121624,132.304787 L378.121624,123.983731 L324.044824,123.983731 L324.044824,132.304787 Z M581.117612,318.280383 C510.401796,318.280383 468.804258,279.171421 468.804258,210.106658 L468.804258,0 L580.285661,0 L580.285661,219.259819 L588.605169,219.259819 L588.605169,0 L700.086572,0 L700.086572,210.106658 C700.086572,279.171421 658.489033,318.280383 587.773218,318.280383 L581.117612,318.280383 Z M819.887482,213.019028 L909.738165,213.019028 L909.738165,312.039591 L708.406079,312.039591 L708.406079,0 L819.887482,0 L819.887482,213.019028 Z" id="PAUL" fill="#444444"></path>
                    <path d="M1088.07339,246.720925 L1047.25375,246.720925 L1047.25375,252.398886 L1088.07339,252.398886 L1088.07339,315.667595 L1044.55046,315.667595 L1030.76369,300.526365 C1022.3835,312.423046 1007.51541,319.723281 982.645165,319.723281 C941.014531,319.723281 913.981651,297.011437 913.981651,258.076847 C913.981651,238.068794 921.550858,220.223774 940.744202,212.653159 C922.361844,205.352924 915.333295,189.130178 915.333295,170.47402 C915.333295,131.53943 944.528805,108.827586 989.403385,108.827586 C1034.27796,108.827586 1063.47347,131.53943 1063.47347,170.47402 C1063.47347,175.070465 1062.93282,179.39653 1062.12183,183.452217 L1088.07339,183.452217 L1088.07339,246.720925 Z M1009.40772,182.641079 L1009.40772,177.233498 L976.96826,177.233498 L976.96826,182.641079 L1009.40772,182.641079 Z M1009.40772,251.31737 L1009.40772,245.909788 L976.96826,245.909788 L976.96826,251.31737 L1009.40772,251.31737 Z" id="&amp;" fill="#444444"></path>
                    <path d="M85.4899266,690.184552 C39.2359266,690.184552 16.3211009,662.596759 16.3211009,603.176897 L16.3211009,469.482207 C16.3211009,399.027228 58.7559633,359.131034 130.895229,359.131034 L137.684807,359.131034 C209.824073,359.131034 252.258936,399.027228 252.258936,469.482207 L252.258936,520.413517 L138.533505,520.413517 L138.533505,460.1448 L130.046532,460.1448 L130.046532,582.804372 L138.533505,582.804372 L138.533505,528.902069 L252.258936,528.902069 L252.258936,683.818138 L161.872679,683.818138 L144.898734,647.317366 C139.382202,667.68989 127.924789,690.184552 85.4899266,690.184552 Z M470.374128,466.511214 L361.740881,466.511214 L361.740881,474.999766 L470.374128,474.999766 L470.374128,574.315821 L361.740881,574.315821 L361.740881,582.804372 L470.374128,582.804372 L470.374128,683.818138 L260.745908,683.818138 L260.745908,365.497448 L470.374128,365.497448 L470.374128,466.511214 Z M593.435229,690.184552 C521.295963,690.184552 478.861101,650.288359 478.861101,579.833379 L478.861101,469.482207 C478.861101,399.027228 521.295963,359.131034 593.435229,359.131034 L600.224807,359.131034 C672.364073,359.131034 714.798936,399.027228 714.798936,469.482207 L714.798936,579.833379 C714.798936,650.288359 672.364073,690.184552 600.224807,690.184552 L593.435229,690.184552 Z M592.586532,589.170786 L601.073505,589.170786 L601.073505,460.1448 L592.586532,460.1448 L592.586532,589.170786 Z M932.914128,466.511214 L832.767853,466.511214 L832.767853,474.999766 L932.914128,474.999766 L932.914128,574.315821 L832.767853,574.315821 L832.767853,683.818138 L723.285908,683.818138 L723.285908,365.497448 L932.914128,365.497448 L932.914128,466.511214 Z M1151.02932,466.511214 L1050.88305,466.511214 L1050.88305,474.999766 L1151.02932,474.999766 L1151.02932,574.315821 L1050.88305,574.315821 L1050.88305,683.818138 L941.401101,683.818138 L941.401101,365.497448 L1151.02932,365.497448 L1151.02932,466.511214 Z" id="GEOFF-/" fill="#F8E71C"></path>
                    <path d="M16.3211009,322.92235 L16.3211009,10.8827586 L156.08883,10.8827586 C217.653187,10.8827586 260.082676,43.3348761 260.082676,110.735428 L260.082676,117.392272 C260.082676,184.792824 217.653187,217.244942 156.08883,217.244942 L127.802504,217.244942 L127.802504,322.92235 L16.3211009,322.92235 Z M111.163489,118.224378 L156.920781,118.224378 L156.920781,109.903322 L111.163489,109.903322 L111.163489,118.224378 Z M245.523538,322.92235 L278.801568,10.8827586 L456.007082,10.8827586 L489.285113,322.92235 L370.732128,322.92235 L370.732128,222.653628 L362.412621,222.653628 L362.412621,322.92235 L245.523538,322.92235 Z M340.365925,143.187545 L394.442725,143.187545 L394.442725,134.86649 L340.365925,134.86649 L340.365925,143.187545 Z M597.438713,329.163142 C526.722897,329.163142 485.125359,290.05418 485.125359,220.989417 L485.125359,10.8827586 L596.606762,10.8827586 L596.606762,230.142578 L604.926269,230.142578 L604.926269,10.8827586 L716.407672,10.8827586 L716.407672,220.989417 C716.407672,290.05418 674.810134,329.163142 604.094319,329.163142 L597.438713,329.163142 Z M836.208583,223.901786 L926.059266,223.901786 L926.059266,322.92235 L724.72718,322.92235 L724.72718,10.8827586 L836.208583,10.8827586 L836.208583,223.901786 Z" id="PAUL" fill="#F8E71C"></path>
                    <path d="M1104.3945,257.603684 L1063.57485,257.603684 L1063.57485,263.281645 L1104.3945,263.281645 L1104.3945,326.550353 L1060.87156,326.550353 L1047.08479,311.409124 C1038.7046,323.305804 1023.83651,330.60604 998.966266,330.60604 C957.335632,330.60604 930.302752,307.894196 930.302752,268.959606 C930.302752,248.951553 937.871959,231.106532 957.065303,223.535918 C938.682945,216.235682 931.654396,200.012936 931.654396,181.356779 C931.654396,142.422189 960.849906,119.710345 1005.72449,119.710345 C1050.59907,119.710345 1079.79458,142.422189 1079.79458,181.356779 C1079.79458,185.953223 1079.25392,190.279289 1078.44293,194.334975 L1104.3945,194.334975 L1104.3945,257.603684 Z M1025.72882,193.523838 L1025.72882,188.116256 L993.289361,188.116256 L993.289361,193.523838 L1025.72882,193.523838 Z M1025.72882,262.200129 L1025.72882,256.792547 L993.289361,256.792547 L993.289361,262.200129 L1025.72882,262.200129 Z" id="&amp;" fill="#F8E71C"></path>
                    <path d="M531.525239,782.294465 C504.614348,785.445432 490.326607,774.354128 490.326607,747.576972 L490.326607,742.721011 L508.498394,740.593296 L508.498394,739.205878 C496.984972,736.114237 489.633028,726.569437 489.633028,712.001554 C489.633028,691.190292 505.724076,677.096935 530.276796,674.222084 C556.077959,671.201053 569.533404,684.193452 569.533404,706.392131 L569.533404,714.022927 L552.055197,716.069432 L552.055197,717.456849 C563.291187,720.442233 570.226984,731.284435 570.226984,744.4649 C570.226984,765.831129 554.413368,779.614518 531.525239,782.294465 Z M521.26026,713.154316 L537.906172,711.205264 L537.906172,708.430429 L521.26026,710.379481 L521.26026,713.154316 Z M521.26026,748.394719 L537.906172,746.445667 L537.906172,743.670832 L521.26026,745.619884 L521.26026,748.394719 Z M594.640988,774.210601 C579.798383,775.948505 570.920564,768.663495 570.920564,752.846936 C570.920564,739.111504 579.520951,729.08628 588.398771,725.688176 L588.398771,724.300759 L573.694882,726.022421 L573.694882,724.635004 C573.694882,701.603874 588.260055,686.85673 611.425616,684.144299 C633.758881,681.529321 646.659462,693.06053 646.659462,716.091659 L646.659462,766.732396 L617.112969,770.191963 L617.112969,756.872755 C615.170946,763.89849 608.512581,772.586391 594.640988,774.210601 Z M604.351103,721.461725 L618.500128,719.805031 L618.500128,717.030196 L604.351103,718.68689 L604.351103,721.461725 Z M600.467057,745.5026 L617.112969,743.553548 L617.112969,740.778713 L600.467057,742.727765 L600.467057,745.5026 Z M674.125217,782.940304 L679.11899,757.520816 L653.733975,760.49312 L645.272303,682.262353 L684.25148,677.698323 L684.25148,736.108597 L687.025798,735.783755 L687.025798,677.373481 L726.559839,672.744482 L715.462564,778.100158 L674.125217,782.940304 Z M761.238822,753.316421 L754.303025,650.072218 L791.478895,645.719335 L785.930258,716.572341 L788.704576,716.524983 L794.253214,645.394493 L825.880446,641.691294 L831.429083,711.522416 L834.203402,710.92009 L828.654765,641.366452 L865.830635,637.013569 L858.894838,741.881982 L815.060603,747.014486 L812.425001,721.933347 L810.76041,684.529239 L809.37325,684.69166 L807.708659,722.485578 L805.073056,748.183917 L761.238822,753.316421 Z M901.896777,738.928057 C878.315068,741.689214 864.443475,729.716733 864.443475,705.853153 L864.443475,691.978979 C864.443475,668.115399 878.315068,652.894498 901.896777,650.133341 L904.116232,649.873467 C927.69794,647.11231 941.569533,659.084791 941.569533,682.948371 L941.569533,696.822546 C941.569533,720.686126 927.69794,735.907026 904.116232,738.668183 L901.896777,738.928057 Z M901.619345,707.327424 L904.393664,707.002582 L904.393664,681.474101 L901.619345,681.798943 L901.619345,707.327424 Z M998.997929,639.457579 C1013.97925,637.703433 1021.46991,645.844573 1021.46991,664.574708 L1021.46991,686.773387 L984.29404,691.12627 L984.29404,672.81236 L981.519722,673.137202 L981.519722,727.523965 L944.343852,731.876848 L944.343852,647.244384 L978.745403,643.216344 L978.745403,654.0382 C982.074585,647.266269 988.178086,640.724463 998.997929,639.457579 Z M1064.19442,613.787366 L1101.37029,609.434483 L1101.37029,713.490791 L1066.96874,717.518832 L1066.96874,706.558234 C1063.91699,713.158938 1057.9522,719.684502 1045.60648,721.130049 C1031.31874,722.802985 1024.24423,714.335636 1024.24423,695.882984 L1024.24423,673.961788 C1024.24423,649.543241 1039.50298,636.102304 1061.69753,633.503568 L1064.19442,633.21121 L1064.19442,613.787366 Z M1061.4201,687.922815 L1064.19442,687.459232 L1064.19442,663.45691 L1061.4201,663.781752 L1061.4201,687.922815 Z M1142.4302,710.764255 C1116.62904,713.785286 1103.45103,703.119012 1103.45103,683.001459 L1103.45103,677.174306 L1118.84849,675.371433 L1118.84849,673.984015 C1110.66425,672.167464 1103.45103,665.519999 1103.45103,652.894501 C1103.45103,636.522975 1116.49032,625.006812 1139.23974,622.343107 C1164.34732,619.403287 1177.52533,629.792078 1177.52533,650.187114 L1177.52533,655.320559 L1162.12786,657.123432 L1162.12786,658.510849 C1170.3121,661.298592 1177.52533,667.113607 1177.52533,679.600364 C1177.52533,696.388115 1165.17962,708.100551 1142.4302,710.764255 Z M1130.63935,657.064361 L1148.94985,654.920404 L1148.94985,652.145569 L1130.63935,654.289526 L1130.63935,657.064361 Z M1132.02651,680.349295 L1150.33701,678.205338 L1150.33701,675.430503 L1132.02651,677.57446 L1132.02651,680.349295 Z" id="Say-Words" fill="#444444"></path>
                    <path d="M531.25854,781.193982 C504.518972,784.32489 490.322192,773.304196 490.322192,746.697512 L490.322192,741.872465 L508.378291,739.758296 L508.378291,738.379711 C496.938167,735.307752 489.633028,725.823718 489.633028,711.348579 C489.633028,690.669808 505.621635,676.666174 530.018044,673.809625 C555.654949,670.807827 569.024732,683.717512 569.024732,705.774867 L569.024732,713.357083 L551.657797,715.390559 L551.657797,716.769144 C562.822256,719.735522 569.713897,730.508698 569.713897,743.605253 C569.713897,764.835457 554.000955,778.531097 531.25854,781.193982 Z M521.058911,712.494002 L537.598849,710.557358 L537.598849,707.800189 L521.058911,709.736833 L521.058911,712.494002 Z M521.058911,747.510053 L537.598849,745.573409 L537.598849,742.81624 L521.058911,744.752884 L521.058911,747.510053 Z M593.972473,773.161582 C579.224361,774.888423 570.403061,767.649792 570.403061,751.933926 C570.403061,738.285938 578.948696,728.324538 587.769996,724.948067 L587.769996,723.569483 L573.159717,725.280185 L573.159717,723.9016 C573.159717,701.017094 587.632163,686.363835 610.650244,683.668672 C632.841329,681.070342 645.659781,692.528139 645.659781,715.412645 L645.659781,765.730986 L616.30139,769.168529 L616.30139,755.934116 C614.371731,762.915122 607.755755,771.547713 593.972473,773.161582 Z M603.620771,720.748523 L617.679718,719.102376 L617.679718,716.345206 L603.620771,717.991354 L603.620771,720.748523 Z M599.761452,744.636346 L616.30139,742.699703 L616.30139,739.942533 L599.761452,741.879177 L599.761452,744.636346 Z M672.95068,781.835709 L677.912661,756.57805 L652.689255,759.531432 L644.281453,681.798707 L683.012476,677.263733 L683.012476,735.302148 L685.769132,734.979374 L685.769132,676.940959 L725.051486,672.34143 L714.02486,777.026377 L672.95068,781.835709 Z M759.509691,752.400422 L752.61805,649.813505 L789.557246,645.488334 L784.043933,715.890267 L786.80059,715.84321 L792.313903,645.16556 L823.739786,641.485937 L829.253099,710.872491 L832.009755,710.274 L826.496442,641.163163 L863.435638,636.837992 L856.543997,741.038778 L812.988826,746.138607 L810.370002,721.217142 L808.716008,684.051162 L807.33768,684.212548 L805.683686,721.765858 L803.064863,747.300593 L759.509691,752.400422 Z M899.272172,738.103659 C875.840592,740.847238 862.05731,728.950977 862.05731,705.239321 L862.05731,691.453474 C862.05731,667.741817 875.840592,652.617817 899.272172,649.874239 L901.477497,649.61602 C924.909077,646.872441 938.692359,658.768701 938.692359,682.480358 L938.692359,696.266205 C938.692359,719.977861 924.909077,735.101861 901.477497,737.84544 L899.272172,738.103659 Z M898.996506,706.704205 L901.753163,706.381431 L901.753163,681.015473 L898.996506,681.338247 L898.996506,706.704205 Z M995.755147,639.266443 C1010.64109,637.523463 1018.08406,645.612774 1018.08406,664.223667 L1018.08406,686.281022 L981.144868,690.606193 L981.144868,672.408876 L978.388211,672.73165 L978.388211,726.772169 L941.449015,731.09734 L941.449015,647.003674 L975.631555,643.001277 L975.631555,653.754238 C978.939543,647.02542 985.004187,640.525261 995.755147,639.266443 Z M1060.53657,613.759654 L1097.47577,609.434483 L1097.47577,712.828334 L1063.29323,716.830732 L1063.29323,705.939912 C1060.26091,712.498595 1054.3341,718.982615 1042.06697,720.418959 C1027.87019,722.081245 1020.84072,713.667801 1020.84072,695.332624 L1020.84072,673.550986 C1020.84072,649.287896 1036.00233,635.932528 1058.05558,633.350336 L1060.53657,633.059839 L1060.53657,613.759654 Z M1057.77992,687.423133 L1060.53657,686.962501 L1060.53657,663.112986 L1057.77992,663.43576 L1057.77992,687.423133 Z M1138.27428,710.119157 C1112.63738,713.120955 1099.54326,702.522586 1099.54326,682.533108 L1099.54326,676.743052 L1114.8427,674.951657 L1114.8427,673.573072 C1106.71057,671.768086 1099.54326,665.162941 1099.54326,652.61782 C1099.54326,636.350521 1112.49955,624.907673 1135.10413,622.260927 C1160.05187,619.339823 1173.14599,629.662475 1173.14599,649.92767 L1173.14599,655.028433 L1157.84654,656.819828 L1157.84654,658.198413 C1165.97868,660.968409 1173.14599,666.746403 1173.14599,679.153665 C1173.14599,695.83454 1160.87887,707.47241 1138.27428,710.119157 Z M1126.55849,656.761134 L1144.75243,654.630826 L1144.75243,651.873657 L1126.55849,654.003965 L1126.55849,656.761134 Z M1127.93682,679.897828 L1146.13075,677.76752 L1146.13075,675.010351 L1127.93682,677.140659 L1127.93682,679.897828 Z" id="Say-Words" fill="#444444"></path>
                    <path d="M542.139273,786.635361 C515.399706,789.766269 501.202926,778.745576 501.202926,752.138891 L501.202926,747.313845 L519.259025,745.199675 L519.259025,743.821091 C507.818901,740.749131 500.513761,731.265097 500.513761,716.789958 C500.513761,696.111188 516.502369,682.107554 540.898778,679.251004 C566.535683,676.249206 579.905466,689.158892 579.905466,711.216247 L579.905466,718.798463 L562.538531,720.831939 L562.538531,722.210523 C573.702989,725.176901 580.594631,735.950078 580.594631,749.046632 C580.594631,770.276836 564.881689,783.972476 542.139273,786.635361 Z M531.939645,717.935381 L548.479583,715.998738 L548.479583,713.241568 L531.939645,715.178212 L531.939645,717.935381 Z M531.939645,752.951432 L548.479583,751.014789 L548.479583,748.257619 L531.939645,750.194263 L531.939645,752.951432 Z M604.853207,778.602962 C590.105095,780.329802 581.283795,773.091171 581.283795,757.375305 C581.283795,743.727317 589.82943,733.765917 598.65073,730.389447 L598.65073,729.010862 L584.040451,730.721564 L584.040451,729.342979 C584.040451,706.458473 598.512897,691.805214 621.530978,689.110051 C643.722063,686.511721 656.540515,697.969518 656.540515,720.854024 L656.540515,771.172365 L627.182124,774.609908 L627.182124,761.375495 C625.252465,768.356502 618.636489,776.989092 604.853207,778.602962 Z M614.501505,726.189902 L628.560452,724.543755 L628.560452,721.786586 L614.501505,723.432733 L614.501505,726.189902 Z M610.642186,750.077726 L627.182124,748.141082 L627.182124,745.383912 L610.642186,747.320556 L610.642186,750.077726 Z M683.831414,787.277089 L688.793395,762.01943 L663.569989,764.972811 L655.162187,687.240086 L693.89321,682.705112 L693.89321,740.743528 L696.649866,740.420754 L696.649866,682.382338 L735.93222,677.782809 L724.905594,782.467757 L683.831414,787.277089 Z M770.390425,757.841801 L763.498784,655.254884 L800.43798,650.929713 L794.924667,721.331646 L797.681324,721.284589 L803.194637,650.606939 L834.62052,646.927316 L840.133833,716.31387 L842.890489,715.715379 L837.377176,646.604542 L874.316372,642.279371 L867.424731,746.480158 L823.86956,751.579986 L821.250736,726.658522 L819.596742,689.492541 L818.218414,689.653928 L816.56442,727.207237 L813.945597,752.741972 L770.390425,757.841801 Z M910.152906,743.545038 C886.721326,746.288617 872.938044,734.392357 872.938044,710.6807 L872.938044,696.894853 C872.938044,673.183197 886.721326,658.059197 910.152906,655.315618 L912.358231,655.057399 C935.789811,652.31382 949.573093,664.210081 949.573093,687.921737 L949.573093,701.707584 C949.573093,725.419241 935.789811,740.54324 912.358231,743.286819 L910.152906,743.545038 Z M909.87724,712.145585 L912.633897,711.822811 L912.633897,686.456853 L909.87724,686.779626 L909.87724,712.145585 Z M1006.63588,644.707822 C1021.52183,642.964843 1028.9648,651.054153 1028.9648,669.665047 L1028.9648,691.722402 L992.025602,696.047573 L992.025602,677.850255 L989.268945,678.173029 L989.268945,732.213549 L952.329749,736.53872 L952.329749,652.445054 L986.512289,648.442657 L986.512289,659.195617 C989.820276,652.466799 995.884921,645.96664 1006.63588,644.707822 Z M1071.41731,619.201033 L1108.3565,614.875862 L1108.3565,718.269714 L1074.17396,722.272111 L1074.17396,711.381292 C1071.14164,717.939974 1065.21483,724.423994 1052.94771,725.860338 C1038.75093,727.522624 1031.72145,719.10918 1031.72145,700.774004 L1031.72145,678.992366 C1031.72145,654.729275 1046.88306,641.373907 1068.93632,638.791715 L1071.41731,638.501219 L1071.41731,619.201033 Z M1068.66065,692.864513 L1071.41731,692.40388 L1071.41731,668.554365 L1068.66065,668.877139 L1068.66065,692.864513 Z M1149.15502,715.560536 C1123.51811,718.562334 1110.42399,707.963965 1110.42399,687.974487 L1110.42399,682.184431 L1125.72344,680.393036 L1125.72344,679.014451 C1117.5913,677.209465 1110.42399,670.60432 1110.42399,658.059199 C1110.42399,641.7919 1123.38028,630.349053 1145.98486,627.702306 C1170.9326,624.781202 1184.02672,635.103854 1184.02672,655.369049 L1184.02672,660.469812 L1168.72728,662.261208 L1168.72728,663.639792 C1176.85941,666.409788 1184.02672,672.187782 1184.02672,684.595044 C1184.02672,701.275919 1171.7596,712.91379 1149.15502,715.560536 Z M1137.43923,662.202513 L1155.63316,660.072205 L1155.63316,657.315036 L1137.43923,659.445344 L1137.43923,662.202513 Z M1138.81756,685.339208 L1157.01149,683.2089 L1157.01149,680.45173 L1138.81756,682.582038 L1138.81756,685.339208 Z" id="Say-Words" fill="#444444"></path>
                    <path d="M536.698906,775.752603 C509.959339,778.88351 495.762559,767.862817 495.762559,741.256132 L495.762559,736.431086 L513.818658,734.316917 L513.818658,732.938332 C502.378534,729.866373 495.073394,720.382339 495.073394,705.907199 C495.073394,685.228429 511.062002,671.224795 535.458411,668.368245 C561.095316,665.366448 574.465099,678.276133 574.465099,700.333488 L574.465099,707.915704 L557.098164,709.94918 L557.098164,711.327765 C568.262623,714.294143 575.154264,725.067319 575.154264,738.163874 C575.154264,759.394078 559.441322,773.089718 536.698906,775.752603 Z M526.499278,707.052623 L543.039216,705.115979 L543.039216,702.35881 L526.499278,704.295453 L526.499278,707.052623 Z M526.499278,742.068674 L543.039216,740.13203 L543.039216,737.374861 L526.499278,739.311504 L526.499278,742.068674 Z M599.41284,767.720203 C584.664728,769.447044 575.843428,762.208412 575.843428,746.492547 C575.843428,732.844558 584.389063,722.883159 593.210363,719.506688 L593.210363,718.128103 L578.600084,719.838805 L578.600084,718.460221 C578.600084,695.575715 593.07253,680.922455 616.090611,678.227293 C638.281696,675.628962 651.100148,687.08676 651.100148,709.971265 L651.100148,760.289607 L621.741757,763.727149 L621.741757,750.492736 C619.812098,757.473743 613.196122,766.106333 599.41284,767.720203 Z M609.061138,715.307144 L623.120085,713.660997 L623.120085,710.903827 L609.061138,712.549974 L609.061138,715.307144 Z M605.201819,739.194967 L621.741757,737.258323 L621.741757,734.501154 L605.201819,736.437798 L605.201819,739.194967 Z M678.391047,776.39433 L683.353028,751.136671 L658.129622,754.090053 L649.72182,676.357328 L688.452843,671.822353 L688.452843,729.860769 L691.209499,729.537995 L691.209499,671.49958 L730.491853,666.900051 L719.465227,771.584998 L678.391047,776.39433 Z M764.950058,746.959042 L758.058417,644.372125 L794.997613,640.046954 L789.4843,710.448888 L792.240957,710.401831 L797.75427,639.72418 L829.180153,636.044557 L834.693466,705.431112 L837.450122,704.832621 L831.936809,635.721783 L868.876005,631.396612 L861.984364,735.597399 L818.429193,740.697227 L815.810369,715.775763 L814.156375,678.609782 L812.778047,678.771169 L811.124053,716.324479 L808.50523,741.859214 L764.950058,746.959042 Z M904.712539,732.66228 C881.280959,735.405858 867.497677,723.509598 867.497677,699.797941 L867.497677,686.012095 C867.497677,662.300438 881.280959,647.176438 904.712539,644.43286 L906.917864,644.17464 C930.349444,641.431062 944.132726,653.327322 944.132726,677.038979 L944.132726,690.824825 C944.132726,714.536482 930.349444,729.660482 906.917864,732.40406 L904.712539,732.66228 Z M904.436873,701.262826 L907.19353,700.940052 L907.19353,675.574094 L904.436873,675.896868 L904.436873,701.262826 Z M1001.19551,633.825063 C1016.08146,632.082084 1023.52443,640.171395 1023.52443,658.782288 L1023.52443,680.839643 L986.585235,685.164814 L986.585235,666.967496 L983.828578,667.29027 L983.828578,721.33079 L946.889382,725.655961 L946.889382,641.562295 L981.071922,637.559898 L981.071922,648.312859 C984.379909,641.58404 990.444554,635.083882 1001.19551,633.825063 Z M1065.97694,608.318274 L1102.91614,603.993103 L1102.91614,707.386955 L1068.7336,711.389352 L1068.7336,700.498533 C1065.70127,707.057216 1059.77446,713.541235 1047.50734,714.977579 C1033.31056,716.639865 1026.28109,708.226421 1026.28109,689.891245 L1026.28109,668.109607 C1026.28109,643.846516 1041.4427,630.491148 1063.49595,627.908957 L1065.97694,627.61846 L1065.97694,608.318274 Z M1063.22028,681.981754 L1065.97694,681.521121 L1065.97694,657.671606 L1063.22028,657.99438 L1063.22028,681.981754 Z M1143.71465,704.677778 C1118.07775,707.679575 1104.98363,697.081206 1104.98363,677.091728 L1104.98363,671.301673 L1120.28307,669.510277 L1120.28307,668.131693 C1112.15093,666.326706 1104.98363,659.721561 1104.98363,647.176441 C1104.98363,630.909141 1117.93991,619.466294 1140.5445,616.819548 C1165.49224,613.898443 1178.58635,624.221095 1178.58635,644.48629 L1178.58635,649.587054 L1163.28691,651.378449 L1163.28691,652.757034 C1171.41905,655.527029 1178.58635,661.305023 1178.58635,673.712286 C1178.58635,690.39316 1166.31923,702.031031 1143.71465,704.677778 Z M1131.99886,651.319755 L1150.19279,649.189447 L1150.19279,646.432277 L1131.99886,648.562585 L1131.99886,651.319755 Z M1133.37719,674.456449 L1151.57112,672.326141 L1151.57112,669.568972 L1133.37719,671.69928 L1133.37719,674.456449 Z" id="Say-Words" fill="#444444"></path>
                    <path d="M546.256455,781.175495 C520.366881,784.206878 506.621385,773.536508 506.621385,747.775593 L506.621385,743.103925 L524.10352,741.05696 L524.10352,739.722198 C513.027053,736.74789 505.954128,727.565333 505.954128,713.550327 C505.954128,693.528891 521.434492,679.970402 545.055392,677.204656 C569.877354,674.298279 582.822141,686.797593 582.822141,708.153792 L582.822141,715.494986 L566.007263,717.463822 L566.007263,718.798584 C576.816828,721.670667 583.489398,732.101388 583.489398,744.781631 C583.489398,765.336972 568.275937,778.597257 546.256455,781.175495 Z M536.38105,714.65934 L552.395219,712.784258 L552.395219,710.114733 L536.38105,711.989815 L536.38105,714.65934 Z M536.38105,748.562306 L552.395219,746.687224 L552.395219,744.017699 L536.38105,745.892781 L536.38105,748.562306 Z M606.976847,773.398428 C592.697546,775.070376 584.156655,768.061845 584.156655,752.845553 C584.156655,739.631405 592.430643,729.986657 600.971533,726.717517 L600.971533,725.382755 L586.825684,727.039077 L586.825684,725.704315 C586.825684,703.547258 600.838082,689.359795 623.124467,686.750306 C644.610145,684.234571 657.021126,695.328149 657.021126,717.485205 L657.021126,766.204034 L628.595975,769.532305 L628.595975,756.718585 C626.727655,763.477681 620.321988,771.83586 606.976847,773.398428 Z M616.318445,722.651467 L629.930489,721.057648 L629.930489,718.388123 L616.318445,719.981943 L616.318445,722.651467 Z M612.581806,745.779948 L628.595975,743.904866 L628.595975,741.235341 L612.581806,743.110423 L612.581806,745.779948 Z M683.444505,781.796823 L688.248756,757.342051 L663.827148,760.201551 L655.686612,684.939783 L693.186458,680.548966 L693.186458,736.742464 L695.855486,736.42995 L695.855486,680.236452 L733.889139,675.783132 L723.213026,777.14037 L683.444505,781.796823 Z M767.251991,753.29722 L760.579421,653.971321 L796.344399,649.783638 L791.006342,717.947645 L793.675371,717.902084 L799.013427,649.471125 L829.440349,645.908469 L834.778405,713.089373 L837.447433,712.509907 L832.109377,645.595955 L867.874355,641.408272 L861.201785,742.296739 L819.031139,747.234455 L816.495562,723.10519 L814.894145,687.120636 L813.559631,687.276893 L811.958214,723.636464 L809.422637,748.359504 L767.251991,753.29722 Z M902.571722,739.454921 C879.884982,742.111287 866.539841,730.593183 866.539841,707.63527 L866.539841,694.287645 C866.539841,671.329731 879.884982,656.686491 902.571722,654.030125 L904.706945,653.780114 C927.393685,651.123748 940.738826,662.641851 940.738826,685.599765 L940.738826,698.94739 C940.738826,721.905304 927.393685,736.548544 904.706945,739.20491 L902.571722,739.454921 Z M902.304819,709.053589 L904.973847,708.741075 L904.973847,684.181446 L902.304819,684.49396 L902.304819,709.053589 Z M995.98771,643.759528 C1010.40046,642.071954 1017.60684,649.904123 1017.60684,667.923416 L1017.60684,689.279615 L981.84186,693.467298 L981.84186,675.848434 L979.172832,676.160948 L979.172832,728.483635 L943.407854,732.671318 L943.407854,651.25081 L976.503804,647.37564 L976.503804,657.786787 C979.706638,651.271864 985.5785,644.978331 995.98771,643.759528 Z M1058.70987,619.063545 L1094.47485,614.875862 L1094.47485,714.983045 L1061.3789,718.858214 L1061.3789,708.313591 C1058.44297,714.663787 1052.70456,720.941694 1040.82738,722.332379 C1027.08189,723.941825 1020.27587,715.795826 1020.27587,698.043486 L1020.27587,676.954239 C1020.27587,653.46242 1034.95552,640.531591 1056.30775,638.031482 L1058.70987,637.750219 L1058.70987,619.063545 Z M1056.04084,690.38542 L1058.70987,689.93943 L1058.70987,666.84804 L1056.04084,667.160554 L1056.04084,690.38542 Z M1133.97647,712.359986 C1109.15451,715.266363 1096.47662,705.004894 1096.47662,685.650838 L1096.47662,680.044836 L1111.28973,678.310385 L1111.28973,676.975623 C1103.4161,675.228013 1096.47662,668.832832 1096.47662,656.686494 C1096.47662,640.936297 1109.02105,629.857193 1130.90709,627.294581 C1155.06179,624.466332 1167.73968,634.460849 1167.73968,654.081857 L1167.73968,659.020478 L1152.92657,660.754929 L1152.92657,662.089691 C1160.8002,664.771635 1167.73968,670.365959 1167.73968,682.378821 C1167.73968,698.529446 1155.8625,709.797374 1133.97647,712.359986 Z M1122.6331,660.698101 L1140.24869,658.63551 L1140.24869,655.965985 L1122.6331,658.028576 L1122.6331,660.698101 Z M1123.96761,683.099329 L1141.5832,681.036739 L1141.5832,678.367214 L1123.96761,680.429804 L1123.96761,683.099329 Z" id="Say-Words" fill="#F8E71C"></path>
                </g>
                <circle id="Oval-3" stroke="#71C21F" stroke-width="5" fill="#FFFFFF" cx="92" cy="800" r="13.5"></circle>
                <polygon id="Path-9" fill="#71C21F" fill-rule="nonzero" points="95.0554569 793.283441 98.6905227 796.716559 89.8175329 806.111489 86.1824671 802.678372"></polygon>
            </g>
        </g>
    </g>
</svg>